<?xml version="1.0" ?><svg viewBox="0 0 22.484 22.485" fill="#d3bc67" xmlns="http://www.w3.org/2000/svg"><g data-name="Layer 2" id="Layer_2"><g data-name="Layer 1" id="Layer_1-2"><path d="M21.952,10.19l-.7-.51c-.607-.435.049-1.129.291-1.564a1.308,1.308,0,0,0-.806-1.945l-.844-.2a.621.621,0,0,1-.467-.7l.137-.858a1.307,1.307,0,0,0-1.489-1.488l-.858.137c-.743.114-.76-.828-.9-1.312a1.307,1.307,0,0,0-1.945-.8l-.74.455a.622.622,0,0,1-.824-.164L12.3.532a1.307,1.307,0,0,0-2.105,0l-.51.7c-.435.606-1.13-.049-1.564-.291a1.307,1.307,0,0,0-1.945.805l-.2.845a.62.62,0,0,1-.7.467l-.858-.137A1.307,1.307,0,0,0,2.925,4.414l.137.857c.115.744-.828.76-1.312.9a1.307,1.307,0,0,0-.8,1.945l.454.74a.62.62,0,0,1-.164.824l-.7.51a1.307,1.307,0,0,0,0,2.105l.7.509c.607.435-.048,1.13-.29,1.565a1.307,1.307,0,0,0,.805,1.945l.845.2a.622.622,0,0,1,.467.7l-.137.858A1.307,1.307,0,0,0,4.413,19.56l.858-.137c.745-.112.759.826.9,1.311a1.307,1.307,0,0,0,1.945.806l.74-.455a.621.621,0,0,1,.824.164l.51.7a1.307,1.307,0,0,0,2.105,0l.509-.7c.436-.607,1.13.049,1.564.291a1.307,1.307,0,0,0,1.945-.806l.2-.844a.622.622,0,0,1,.7-.467l.858.137a1.309,1.309,0,0,0,1.489-1.489l-.137-.858c-.115-.743.827-.76,1.311-.9a1.308,1.308,0,0,0,.806-1.945l-.455-.74a.622.622,0,0,1,.164-.825l.7-.509A1.307,1.307,0,0,0,21.952,10.19Zm-.4,1.553-.7.509a1.306,1.306,0,0,0-.345,1.734l.455.74a.621.621,0,0,1-.383.924l-.845.2a1.306,1.306,0,0,0-.982,1.469c.015.34.319,1.12-.036,1.392-.275.361-1.037.053-1.392.037a1.3,1.3,0,0,0-1.469.981l-.2.845a.621.621,0,0,1-.925.383l-.74-.455a1.306,1.306,0,0,0-1.733.345l-.509.7a.637.637,0,0,1-1,0l-.51-.7A1.308,1.308,0,0,0,8.5,20.5l-.74.455A.614.614,0,0,1,7.2,21c-.438-.117-.446-.939-.566-1.273a1.306,1.306,0,0,0-1.47-.981l-.857.137a.622.622,0,0,1-.708-.708l.137-.858a1.306,1.306,0,0,0-.982-1.469c-.319-.116-1.156-.134-1.272-.566-.228-.392.348-.979.5-1.3a1.305,1.305,0,0,0-.345-1.733l-.7-.509a.622.622,0,0,1,0-1l.7-.51A1.305,1.305,0,0,0,1.98,8.5c-.144-.308-.723-.912-.5-1.3.116-.438.939-.446,1.272-.567a1.3,1.3,0,0,0,.982-1.469c-.015-.34-.319-1.119.037-1.392.275-.359,1.037-.053,1.391-.036a1.307,1.307,0,0,0,1.47-.982l.2-.844a.622.622,0,0,1,.925-.383l.74.454a1.306,1.306,0,0,0,1.733-.344c.23-.252.566-1.018,1.01-.959.45-.061.771.7,1.01.959a1.305,1.305,0,0,0,1.733.344c.309-.144.912-.723,1.3-.5.439.116.446.938.567,1.272a1.306,1.306,0,0,0,1.469.982c.34-.015,1.12-.32,1.392.036.361.276.053,1.038.036,1.392a1.3,1.3,0,0,0,.982,1.469l.845.2a.621.621,0,0,1,.383.924L20.5,8.5a1.306,1.306,0,0,0,.345,1.733l.7.51A.621.621,0,0,1,21.552,11.743Zm-2.7-.5c-.409,10.093-14.813,10.095-15.223,0A7.649,7.649,0,0,1,15.3,4.8a.341.341,0,0,1-.363.577A6.965,6.965,0,0,0,4.312,11.242c.348,9.18,13.512,9.18,13.86,0a.341.341,0,0,1,.682,0ZM7.425,8.768a.343.343,0,0,0-.581.241v3.4a.341.341,0,0,0,.1.241l3.535,3.534a.341.341,0,0,0,.482,0l6.431-6.431a.343.343,0,0,0,.1-.241v-3.4a.34.34,0,0,0-.581-.241l-6.19,6.19Zm9.384-1.834V9.371l-6.09,6.09L7.525,12.268V9.831l2.953,2.953a.341.341,0,0,0,.482,0Z" id="recommended"/></g></g></svg>