<?xml version="1.0" encoding="iso-8859-1"?>
<!-- Generator: Adobe Illustrator 16.0.0, SVG Export Plug-In . SVG Version: 6.00 Build 0)  -->
<!DOCTYPE svg PUBLIC "-//W3C//DTD SVG 1.1//EN" "http://www.w3.org/Graphics/SVG/1.1/DTD/svg11.dtd">
<svg version="1.1" id="Capa_1" xmlns="http://www.w3.org/2000/svg" xmlns:xlink="http://www.w3.org/1999/xlink" x="0px" y="0px"
	 width="485.213px" height="485.212px" viewBox="0 0 485.213 485.212" style="enable-background:new 0 0 485.213 485.212;"
	 xml:space="preserve">
<g>
	<path d="M363.908,0H121.304C104.54,0,90.978,13.579,90.978,30.327v424.56c0,16.764,13.565,30.326,30.327,30.326h242.604
		c16.765,0,30.327-13.562,30.327-30.326V30.327C394.235,13.579,380.673,0,363.908,0z M189.537,30.327h106.139
		c4.205,0,7.579,3.391,7.579,7.579c0,4.191-3.374,7.584-7.579,7.584H189.537c-4.205,0-7.582-3.393-7.582-7.584
		C181.955,33.717,185.332,30.327,189.537,30.327z M242.606,470.049c-12.557,0-22.745-10.184-22.745-22.742
		c0-12.56,10.188-22.748,22.745-22.748c12.559,0,22.742,10.188,22.742,22.748C265.349,459.866,255.165,470.049,242.606,470.049z
		 M363.908,409.396H121.304V75.816h242.604V409.396z"/>
</g>
<g>
</g>
<g>
</g>
<g>
</g>
<g>
</g>
<g>
</g>
<g>
</g>
<g>
</g>
<g>
</g>
<g>
</g>
<g>
</g>
<g>
</g>
<g>
</g>
<g>
</g>
<g>
</g>
<g>
</g>
</svg>
