<?xml version="1.0" ?><svg id="Layer_1" fill="rgb(3,169,244)" style="enable-background:new 0 0 32 32;" version="1.1" viewBox="0 0 32 32" xml:space="preserve" xmlns="http://www.w3.org/2000/svg" xmlns:xlink="http://www.w3.org/1999/xlink"><style type="text/css">
	.st0{fill:rgb(3,169,244);stroke:#000000;stroke-width:1.5;stroke-linecap:round;stroke-linejoin:round;stroke-miterlimit:10;}
</style><g><path class="st0" d="M22.2,2.9v11.4h-0.3L17.4,15v7c0,2.8,1.6,6.4,4,8.1c0.1,0.1,0.2,0.1,0.2,0.2c-0.3,0.4-0.8,0.6-1.4,0.6H2.9   C1.9,30.9,1,30,1,29V3c0-1.1,0.8-2,1.9-2h17.4C21.3,1,22.2,1.9,22.2,2.9z"/><line class="st0" x1="3.8" x2="9.8" y1="5.1" y2="5.1"/><line class="st0" x1="3.8" x2="14.5" y1="9.4" y2="9.4"/><line class="st0" x1="3.8" x2="14.5" y1="13.7" y2="13.7"/><line class="st0" x1="14.6" x2="3.8" y1="18" y2="18"/><line class="st0" x1="14.6" x2="3.8" y1="22.3" y2="22.3"/><line class="st0" x1="3.6" x2="14.6" y1="26.6" y2="26.6"/><path class="st0" d="M31,15v7c0,3.8-3.1,9-6.8,9c-1,0-1.9-0.4-2.8-1c-2.4-1.7-4-5.2-4-8.1V15l4.4-0.7L24,14L31,15z"/><polyline class="st0" points="21.3,23.3 22.7,24.7 27.1,20.3  "/></g></svg>