<?xml version="1.0" ?><svg viewBox="0 0 32 32" fill="rgb(3,169,244)" xmlns="http://www.w3.org/2000/svg"><title/><g data-name="Shipped Order" id="Shipped_Order"><path d="M30.5,14.4a.47.47,0,0,0-.15-.35L26,9.65a.47.47,0,0,0-.35-.15H18a.5.5,0,0,0-.5.5V21.5h-.31V8a.5.5,0,0,0-.5-.5H2.9a.5.5,0,0,0-.5.5V21.5H2a.5.5,0,0,0-.5.5v4a.5.5,0,0,0,.5.5H3.43A2.49,2.49,0,0,0,7.66,28a2.41,2.41,0,0,0,.71-1.48H23.55a2.5,2.5,0,0,0,2.45,2,2.52,2.52,0,0,0,2.45-2H29a.49.49,0,0,0,.48-.38l1-4s0,0,0-.05,0-.05,0-.07Zm-12-3.9h6.89l4.11,4.11V21.5h-11Zm-3.21,11h-1v-3h1Zm.9-12h-4.9v-1h4.9Zm-6.9,1h1v3.29l-.14-.14a.51.51,0,0,0-.36-.15.49.49,0,0,0-.35.15l-.15.14Zm1-2v1h-1v-1ZM3.4,8.5H8.29v1H3.4Zm0,2H8.29V15a.5.5,0,0,0,.31.46.49.49,0,0,0,.55-.11l.64-.64.65.64a.47.47,0,0,0,.35.15.41.41,0,0,0,.19,0,.5.5,0,0,0,.31-.46V10.5h4.9v7.21a.5.5,0,0,0-.4-.21h-2a.5.5,0,0,0-.5.5v3.5h-1V18a.5.5,0,0,0-.5-.5h-2a.5.5,0,0,0-.5.5v3.5H3.4Zm7.89,11h-1v-3h1ZM7,27.27a1.52,1.52,0,0,1-1.06.44,1.5,1.5,0,0,1-1.5-1.5,1,1,0,0,1,0-.16,1.51,1.51,0,0,1,.42-.91,1.57,1.57,0,0,1,2.13,0,1.53,1.53,0,0,1,.44.93v.14A1.5,1.5,0,0,1,7,27.27Zm20.09-.21A1.46,1.46,0,0,1,26,27.5,1.5,1.5,0,0,1,24.5,26,1.47,1.47,0,0,1,25,24.94a1.5,1.5,0,0,1,2.11,0,1.47,1.47,0,0,1,0,2.11Zm1.56-1.56h-.16a2.54,2.54,0,0,0-.22-.6s-.05-.09-.07-.14a2.76,2.76,0,0,0-.39-.51,2.55,2.55,0,0,0-3.53,0,2.44,2.44,0,0,0-.39.52,1,1,0,0,0-.08.14,2.54,2.54,0,0,0-.22.6H8.3s0,0,0,0a2.67,2.67,0,0,0-.2-.46L8,24.88a2.12,2.12,0,0,0-.35-.44,2.56,2.56,0,0,0-3.54,0,2.66,2.66,0,0,0-.33.44.75.75,0,0,0-.07.12,2.33,2.33,0,0,0-.21.49h-1v-3H29.36Z"/><path d="M25.44,11.56a.5.5,0,0,0-.35-.14H19.92a.5.5,0,0,0-.5.5V16a.5.5,0,0,0,.5.5h8.16a.5.5,0,0,0,.5-.5V14.91a.5.5,0,0,0-.14-.35Zm2.14,3.94H20.42V12.42h4.46l2.7,2.7Z"/></g></svg>