<svg width="24" height="24" viewBox="0 0 24 24" fill="none" xmlns="http://www.w3.org/2000/svg">
<path d="M12 24C18.6274 24 24 18.6274 24 12C24 5.3726 18.6274 0 12 0C5.3726 0 0 5.3726 0 12C0 18.6274 5.3726 24 12 24Z" fill="#25D366"/>
<path fill-rule="evenodd" clip-rule="evenodd" d="M12.3957 18.6762H12.3928C11.1985 18.6758 10.0251 18.3761 8.98285 17.8076L5.2002 18.7999L6.2125 15.1023C5.58805 14.0202 5.2595 12.7927 5.26 11.535C5.2616 7.60076 8.4626 4.3999 12.3956 4.3999C14.3045 4.40073 16.0961 5.14386 17.4433 6.49261C18.7905 7.84131 19.532 9.63406 19.5312 11.5407C19.5297 15.4741 16.3299 18.6746 12.3957 18.6762ZM9.15815 16.5159L9.3747 16.6444C10.2853 17.1848 11.3291 17.4707 12.3933 17.4711H12.3957C15.6646 17.4711 18.3251 14.8105 18.3264 11.5403C18.3271 9.95551 17.7108 8.46546 16.591 7.34441C15.4713 6.22336 13.9822 5.60566 12.398 5.60511C9.12665 5.60511 6.4661 8.26546 6.4648 11.5355C6.46435 12.6561 6.7779 13.7475 7.37155 14.6917L7.5126 14.9161L6.91345 17.1047L9.15815 16.5159ZM15.7464 13.0769C15.8707 13.137 15.9547 13.1776 15.9906 13.2375C16.0351 13.3118 16.0351 13.6688 15.8866 14.0853C15.738 14.5018 15.0257 14.8819 14.6831 14.9331C14.376 14.979 13.9872 14.9982 13.5601 14.8624C13.3012 14.7803 12.9691 14.6706 12.5437 14.4869C10.8723 13.7651 9.7427 12.1451 9.5292 11.8389C9.51425 11.8175 9.5038 11.8025 9.49795 11.7947L9.49655 11.7928C9.4022 11.6669 8.76995 10.8233 8.76995 9.95031C8.76995 9.12901 9.17335 8.69856 9.35905 8.50041C9.3718 8.48686 9.3835 8.47436 9.39395 8.46291C9.5574 8.28441 9.75055 8.23976 9.8694 8.23976C9.98825 8.23976 10.1072 8.24086 10.2111 8.24611C10.2239 8.24676 10.2373 8.24666 10.251 8.24656C10.3549 8.24596 10.4845 8.24521 10.6123 8.55216C10.6614 8.67026 10.7334 8.84541 10.8092 9.03011C10.9626 9.40361 11.1322 9.81631 11.162 9.87601C11.2066 9.96526 11.2363 10.0694 11.1768 10.1884C11.1679 10.2062 11.1597 10.2231 11.1518 10.2392C11.1071 10.3303 11.0743 10.3973 10.9985 10.4858C10.9688 10.5206 10.938 10.5581 10.9072 10.5956C10.8458 10.6703 10.7845 10.745 10.7311 10.7982C10.6418 10.8871 10.5489 10.9835 10.6529 11.162C10.7569 11.3405 11.1148 11.9244 11.6448 12.3972C12.2146 12.9054 12.7098 13.1202 12.9608 13.229C13.0098 13.2503 13.0495 13.2675 13.0786 13.2821C13.2568 13.3714 13.3608 13.3564 13.4649 13.2375C13.5689 13.1185 13.9106 12.7168 14.0294 12.5384C14.1482 12.36 14.2671 12.3897 14.4305 12.4491C14.594 12.5087 15.4706 12.94 15.6489 13.0292C15.6837 13.0466 15.7162 13.0624 15.7464 13.0769Z" fill="#FDFDFD"/>
</svg>
